<mxfile host="app.diagrams.net" agent="Mozilla/5.0 (X11; Linux x86_64) AppleWebKit/537.36 (KHTML, like Gecko) Chrome/131.0.0.0 Safari/537.36" version="26.1.2">
  <diagram name="Page-1" id="H50NvYnh8xtADPXIUhSc">
    <mxGraphModel dx="695" dy="449" grid="1" gridSize="10" guides="1" tooltips="1" connect="1" arrows="1" fold="1" page="1" pageScale="1" pageWidth="850" pageHeight="1100" math="0" shadow="0">
      <root>
        <mxCell id="0" />
        <mxCell id="1" parent="0" />
        <mxCell id="FmFpBY6fpKhsk7QfzRVY-1" value="&lt;font style=&quot;font-size: 21px;&quot;&gt;&lt;b style=&quot;&quot;&gt;Integer Processor&lt;/b&gt;&lt;/font&gt;&lt;div&gt;Registers R0-R12&lt;/div&gt;&lt;div&gt;APSR Flags&lt;/div&gt;&lt;div&gt;&lt;br&gt;&lt;/div&gt;" style="rounded=0;whiteSpace=wrap;html=1;labelBackgroundColor=none;fillColor=#F2CC8F;strokeColor=#E07A5F;fontColor=#393C56;fontSize=15;" vertex="1" parent="1">
          <mxGeometry x="104" y="220" width="223" height="84" as="geometry" />
        </mxCell>
        <mxCell id="FmFpBY6fpKhsk7QfzRVY-2" value="&lt;font style=&quot;font-size: 21px;&quot;&gt;&lt;b style=&quot;&quot;&gt;Floating-point Processor&lt;/b&gt;&lt;/font&gt;&lt;div&gt;&lt;font&gt;Registers S0-S31&lt;/font&gt;&lt;/div&gt;&lt;div&gt;&lt;font&gt;FPU Flags&lt;/font&gt;&lt;/div&gt;" style="rounded=0;whiteSpace=wrap;html=1;labelBackgroundColor=none;fillColor=#F2CC8F;strokeColor=#E07A5F;fontColor=#393C56;fontSize=15;" vertex="1" parent="1">
          <mxGeometry x="530" y="220" width="230" height="84" as="geometry" />
        </mxCell>
        <mxCell id="FmFpBY6fpKhsk7QfzRVY-3" value="" style="endArrow=classic;startArrow=classic;html=1;rounded=0;exitX=1;exitY=0.25;exitDx=0;exitDy=0;entryX=0;entryY=0.25;entryDx=0;entryDy=0;labelBackgroundColor=none;strokeColor=#E07A5F;fontColor=default;fontSize=15;" edge="1" parent="1" source="FmFpBY6fpKhsk7QfzRVY-1" target="FmFpBY6fpKhsk7QfzRVY-2">
          <mxGeometry width="50" height="50" relative="1" as="geometry">
            <mxPoint x="425" y="424" as="sourcePoint" />
            <mxPoint x="475" y="374" as="targetPoint" />
          </mxGeometry>
        </mxCell>
        <mxCell id="FmFpBY6fpKhsk7QfzRVY-5" value="&lt;font&gt;VMOV&lt;/font&gt;" style="text;html=1;align=center;verticalAlign=middle;whiteSpace=wrap;rounded=0;labelBackgroundColor=none;fontColor=#393C56;fontSize=15;" vertex="1" parent="1">
          <mxGeometry x="390" y="209" width="60" height="30" as="geometry" />
        </mxCell>
        <mxCell id="FmFpBY6fpKhsk7QfzRVY-6" value="" style="endArrow=classic;html=1;rounded=0;exitX=0;exitY=0.75;exitDx=0;exitDy=0;entryX=1;entryY=0.75;entryDx=0;entryDy=0;labelBackgroundColor=none;strokeColor=#E07A5F;fontColor=default;fontSize=15;" edge="1" parent="1" source="FmFpBY6fpKhsk7QfzRVY-2" target="FmFpBY6fpKhsk7QfzRVY-1">
          <mxGeometry width="50" height="50" relative="1" as="geometry">
            <mxPoint x="359" y="423" as="sourcePoint" />
            <mxPoint x="409" y="373" as="targetPoint" />
          </mxGeometry>
        </mxCell>
        <mxCell id="FmFpBY6fpKhsk7QfzRVY-7" value="&lt;font&gt;VMRS APSR_nzcv, FPSCR&lt;/font&gt;" style="text;html=1;align=center;verticalAlign=middle;resizable=0;points=[];autosize=1;strokeColor=none;fillColor=none;labelBackgroundColor=none;fontColor=#393C56;fontSize=15;" vertex="1" parent="1">
          <mxGeometry x="338" y="257" width="190" height="30" as="geometry" />
        </mxCell>
        <mxCell id="FmFpBY6fpKhsk7QfzRVY-8" value="&lt;font style=&quot;font-size: 21px;&quot;&gt;&lt;b style=&quot;&quot;&gt;Main Memory&lt;/b&gt;&lt;/font&gt;" style="rounded=1;whiteSpace=wrap;html=1;labelBackgroundColor=none;fillColor=#F2CC8F;strokeColor=#E07A5F;fontColor=#393C56;fontSize=15;" vertex="1" parent="1">
          <mxGeometry x="100.5" y="430" width="639" height="60" as="geometry" />
        </mxCell>
        <mxCell id="FmFpBY6fpKhsk7QfzRVY-10" value="" style="endArrow=classic;html=1;rounded=0;exitX=0.25;exitY=1;exitDx=0;exitDy=0;labelBackgroundColor=none;strokeColor=#E07A5F;fontColor=default;fontSize=15;" edge="1" parent="1" source="FmFpBY6fpKhsk7QfzRVY-1">
          <mxGeometry width="50" height="50" relative="1" as="geometry">
            <mxPoint x="181" y="404" as="sourcePoint" />
            <mxPoint x="160" y="430" as="targetPoint" />
          </mxGeometry>
        </mxCell>
        <mxCell id="FmFpBY6fpKhsk7QfzRVY-11" value="" style="endArrow=classic;html=1;rounded=0;exitX=0.25;exitY=1;exitDx=0;exitDy=0;labelBackgroundColor=none;strokeColor=#E07A5F;fontColor=default;fontSize=15;" edge="1" parent="1">
          <mxGeometry width="50" height="50" relative="1" as="geometry">
            <mxPoint x="240.25" y="430" as="sourcePoint" />
            <mxPoint x="240.25" y="304" as="targetPoint" />
          </mxGeometry>
        </mxCell>
        <mxCell id="FmFpBY6fpKhsk7QfzRVY-13" value="STR&lt;div&gt;STRB&lt;/div&gt;&lt;div&gt;STMFD&lt;/div&gt;&lt;div&gt;...&lt;/div&gt;" style="text;strokeColor=none;fillColor=none;align=left;verticalAlign=middle;spacingLeft=4;spacingRight=4;overflow=hidden;points=[[0,0.5],[1,0.5]];portConstraint=eastwest;rotatable=0;whiteSpace=wrap;html=1;labelBackgroundColor=none;fontColor=#393C56;fontSize=15;" vertex="1" parent="1">
          <mxGeometry x="110" y="350" width="80" height="70" as="geometry" />
        </mxCell>
        <mxCell id="FmFpBY6fpKhsk7QfzRVY-14" value="LDR&lt;div&gt;LDRB&lt;/div&gt;&lt;div&gt;LDMFD&lt;/div&gt;&lt;div&gt;...&lt;/div&gt;" style="text;strokeColor=none;fillColor=none;align=left;verticalAlign=middle;spacingLeft=4;spacingRight=4;overflow=hidden;points=[[0,0.5],[1,0.5]];portConstraint=eastwest;rotatable=0;whiteSpace=wrap;html=1;labelBackgroundColor=none;fontColor=#393C56;fontSize=15;" vertex="1" parent="1">
          <mxGeometry x="240" y="350" width="80" height="70" as="geometry" />
        </mxCell>
        <mxCell id="FmFpBY6fpKhsk7QfzRVY-15" value="VSTR&lt;div&gt;VSTMIA&lt;/div&gt;&lt;div&gt;VSTMDB&lt;/div&gt;&lt;div&gt;...&lt;/div&gt;" style="text;strokeColor=none;fillColor=none;align=left;verticalAlign=middle;spacingLeft=4;spacingRight=4;overflow=hidden;points=[[0,0.5],[1,0.5]];portConstraint=eastwest;rotatable=0;whiteSpace=wrap;html=1;labelBackgroundColor=none;fontColor=#393C56;fontSize=15;" vertex="1" parent="1">
          <mxGeometry x="540" y="350" width="100" height="70" as="geometry" />
        </mxCell>
        <mxCell id="FmFpBY6fpKhsk7QfzRVY-16" value="" style="endArrow=classic;html=1;rounded=0;exitX=0.25;exitY=1;exitDx=0;exitDy=0;labelBackgroundColor=none;strokeColor=#E07A5F;fontColor=default;fontSize=15;" edge="1" parent="1">
          <mxGeometry width="50" height="50" relative="1" as="geometry">
            <mxPoint x="610" y="304" as="sourcePoint" />
            <mxPoint x="610" y="430" as="targetPoint" />
          </mxGeometry>
        </mxCell>
        <mxCell id="FmFpBY6fpKhsk7QfzRVY-17" value="" style="endArrow=classic;html=1;rounded=0;exitX=0.25;exitY=1;exitDx=0;exitDy=0;labelBackgroundColor=none;strokeColor=#E07A5F;fontColor=default;fontSize=15;" edge="1" parent="1">
          <mxGeometry width="50" height="50" relative="1" as="geometry">
            <mxPoint x="690.25" y="430" as="sourcePoint" />
            <mxPoint x="690.25" y="304" as="targetPoint" />
          </mxGeometry>
        </mxCell>
        <mxCell id="FmFpBY6fpKhsk7QfzRVY-18" value="VLDR&lt;div&gt;VLDMIA&lt;/div&gt;&lt;div&gt;VLDMDB&lt;/div&gt;&lt;div&gt;...&lt;/div&gt;" style="text;strokeColor=none;fillColor=none;align=left;verticalAlign=middle;spacingLeft=4;spacingRight=4;overflow=hidden;points=[[0,0.5],[1,0.5]];portConstraint=eastwest;rotatable=0;whiteSpace=wrap;html=1;labelBackgroundColor=none;fontColor=#393C56;fontSize=15;" vertex="1" parent="1">
          <mxGeometry x="690" y="350" width="80" height="70" as="geometry" />
        </mxCell>
        <mxCell id="FmFpBY6fpKhsk7QfzRVY-19" value="Integer Data" style="text;html=1;align=center;verticalAlign=middle;whiteSpace=wrap;rounded=0;labelBackgroundColor=none;fontColor=#393C56;fontSize=15;" vertex="1" parent="1">
          <mxGeometry x="130" y="430" width="140" height="30" as="geometry" />
        </mxCell>
        <mxCell id="FmFpBY6fpKhsk7QfzRVY-20" value="Floating-point Data" style="text;html=1;align=center;verticalAlign=middle;whiteSpace=wrap;rounded=0;labelBackgroundColor=none;fontColor=#393C56;fontSize=15;" vertex="1" parent="1">
          <mxGeometry x="580" y="430" width="140" height="30" as="geometry" />
        </mxCell>
      </root>
    </mxGraphModel>
  </diagram>
</mxfile>
